<?xml version="1.0" standalone="no"?>
<!DOCTYPE svg PUBLIC "-//W3C//DTD SVG 20010904//EN"
 "http://www.w3.org/TR/2001/REC-SVG-20010904/DTD/svg10.dtd">
<svg version="1.0" xmlns="http://www.w3.org/2000/svg"
 width="1024.000000pt" height="1024.000000pt" viewBox="0 0 1024.000000 1024.000000"
 preserveAspectRatio="xMidYMid meet">

<g transform="translate(0.000000,1024.000000) scale(0.100000,-0.100000)"
fill="#000000" stroke="none">
<path d="M6230 9103 c-91 -15 -235 -86 -282 -139 -28 -32 -70 -134 -76 -183
-7 -64 -15 -71 -88 -71 -84 0 -174 -20 -351 -78 -217 -72 -350 -142 -504 -266
l-77 -63 -94 92 c-116 115 -288 243 -396 296 -111 54 -230 78 -309 61 -69 -14
-117 -46 -167 -112 -48 -63 -69 -120 -92 -245 -35 -200 -16 -603 45 -936 11
-58 25 -168 32 -245 l13 -141 -67 -134 c-70 -143 -151 -384 -187 -559 -20
-100 -40 -280 -40 -366 l0 -51 -208 5 -209 5 -16 -24 c-25 -35 -22 -95 6 -123
26 -26 58 -32 232 -41 61 -3 137 -8 171 -11 l60 -6 -4 -56 c-2 -34 3 -77 12
-107 14 -44 14 -51 1 -61 -8 -6 -72 -23 -142 -38 -192 -41 -229 -53 -252 -82
-31 -39 -29 -113 3 -143 30 -28 44 -26 220 26 70 20 144 35 180 36 l61 2 72
-110 c121 -186 144 -215 258 -330 114 -115 218 -200 341 -276 l72 -45 -42 -55
c-22 -31 -87 -116 -142 -190 -99 -131 -178 -258 -251 -403 -40 -79 -94 -166
-104 -166 -4 0 -16 48 -29 108 -41 203 -90 404 -105 432 -24 46 -65 90 -105
110 -36 18 -189 45 -755 134 -274 43 -1211 192 -1635 261 -223 36 -418 65
-435 65 -45 0 -129 -43 -158 -81 -47 -63 -51 -100 -27 -234 28 -158 155 -732
224 -1015 30 -124 61 -259 70 -300 75 -363 103 -488 142 -635 66 -248 82 -295
119 -345 l34 -46 -11 -69 c-13 -88 1 -165 42 -227 44 -66 82 -85 231 -119 399
-90 677 -151 1174 -260 303 -66 804 -179 1115 -251 383 -89 591 -132 646 -136
78 -4 91 -2 300 62 228 69 405 125 1009 319 198 64 492 158 654 209 325 102
329 104 384 205 22 41 30 75 39 161 13 121 5 162 -36 184 -20 12 -20 12 9 18
17 3 62 -1 100 -8 39 -7 150 -16 247 -19 425 -14 987 76 1323 211 49 20 92 36
95 36 3 0 -2 -66 -12 -148 -34 -281 -34 -276 -7 -300 32 -31 89 -29 127 3 38
32 59 84 76 193 8 47 19 88 25 90 24 8 189 121 266 182 337 267 580 674 657
1098 28 159 31 520 5 659 -70 369 -241 607 -527 733 -46 20 -71 24 -155 25
-94 0 -105 -2 -170 -34 -165 -81 -247 -228 -232 -414 7 -82 30 -135 132 -304
142 -233 175 -334 175 -538 0 -185 -32 -305 -131 -495 -42 -80 -66 -116 -73
-109 -2 2 -20 92 -39 199 -40 219 -129 556 -184 694 -60 152 -171 363 -265
504 -97 144 -349 451 -401 487 -17 12 -15 18 47 96 67 84 176 284 222 406 53
140 75 264 81 458 8 277 -30 473 -142 730 -56 129 -75 163 -128 224 -24 28
-28 40 -23 70 56 355 86 785 68 986 -20 214 -71 392 -140 482 -29 39 -126 89
-204 105 -118 25 -269 -38 -488 -202 -74 -56 -154 -115 -178 -132 l-43 -30
-20 26 c-17 21 -79 66 -181 129 l-27 17 26 57 c35 77 43 188 18 264 -26 78
-72 167 -112 217 -87 107 -237 160 -383 135z m-1985 -597 c97 -51 310 -227
386 -319 30 -36 30 -37 12 -64 -10 -15 -36 -50 -58 -78 -22 -27 -67 -92 -100
-142 -53 -84 -62 -93 -90 -93 -17 0 -55 -14 -85 -32 -67 -41 -114 -108 -171
-243 -23 -55 -45 -104 -49 -108 -6 -7 -26 109 -52 313 -7 52 -12 210 -13 350
0 275 15 390 56 431 30 30 87 24 164 -15z m3369 -140 c23 -10 40 -27 55 -59
36 -74 70 -228 77 -349 10 -179 -22 -582 -66 -835 -33 -185 -27 -218 53 -312
152 -177 252 -582 217 -873 -40 -333 -208 -653 -475 -906 -206 -195 -540 -361
-878 -436 -501 -111 -1113 -97 -1642 39 -432 111 -773 343 -959 653 l-37 62
20 26 c41 52 15 134 -53 175 -26 15 -39 33 -51 69 -16 48 -16 48 10 76 14 15
28 37 31 50 8 30 -19 77 -61 111 l-35 28 0 125 c0 273 68 518 241 876 39 82
73 150 75 152 1 2 19 -8 41 -22 21 -13 65 -32 97 -41 54 -16 77 -16 275 -4
119 8 399 14 626 14 401 0 413 -1 565 -27 85 -15 173 -30 196 -33 89 -13 256
44 351 122 101 82 212 293 213 404 0 28 84 147 200 284 88 103 407 417 485
476 95 73 161 110 249 140 91 32 131 35 180 15z m-6429 -3760 c202 -35 513
-85 1665 -266 349 -55 648 -104 664 -108 40 -11 90 -103 112 -202 9 -41 65
-295 126 -565 123 -549 170 -766 198 -905 10 -52 28 -133 39 -180 21 -80 34
-142 96 -425 14 -63 25 -129 25 -145 0 -30 -1 -31 -37 -24 -38 6 -524 111
-943 204 -124 27 -351 77 -505 109 -674 145 -1176 259 -1199 274 -37 24 -57
91 -136 443 -39 175 -116 501 -170 724 -118 487 -182 774 -210 935 -11 66 -23
130 -25 143 -5 21 -2 22 47 22 29 0 143 -15 253 -34z m3075 -1063 c204 -42
336 -136 380 -269 31 -93 26 -211 -13 -277 -71 -121 -281 -238 -327 -182 -19
23 -4 120 29 190 16 33 32 70 35 81 9 30 -8 70 -38 89 -37 24 -83 5 -144 -59
-39 -41 -54 -67 -67 -115 -10 -34 -22 -58 -26 -54 -5 5 -23 78 -39 163 -17 85
-47 217 -66 293 -20 76 -34 140 -32 142 32 27 174 26 308 -2z m1615 -304 c44
-21 103 -58 132 -82 65 -52 152 -158 199 -242 39 -72 74 -212 74 -306 0 -50
-3 -57 -25 -67 -14 -7 -63 -12 -109 -12 -101 0 -152 -16 -224 -73 -141 -109
-169 -120 -291 -106 -108 12 -133 26 -160 88 -37 86 -26 137 54 243 55 73 60
116 18 160 -50 52 -81 37 -159 -75 -79 -113 -103 -175 -104 -262 0 -42 -5 -76
-12 -83 -13 -13 -85 -16 -113 -6 -9 4 -26 25 -38 48 -30 58 -29 148 5 251 14
44 32 115 39 159 l13 78 -27 24 c-37 31 -86 32 -114 2 -26 -28 -45 -75 -74
-175 -12 -43 -28 -95 -37 -117 l-15 -39 -18 34 c-13 24 -18 57 -19 111 0 67 4
83 33 137 47 88 200 259 253 283 34 14 84 21 231 28 160 8 327 31 343 46 10
10 69 -9 145 -47z m-1678 -624 c47 -23 179 -38 228 -26 35 9 49 8 76 -6 l34
-17 -50 -22 c-28 -11 -95 -33 -150 -47 -55 -14 -107 -28 -116 -32 -19 -7 -32
21 -48 103 -15 73 -18 69 26 47z m624 -180 c13 -19 36 -40 51 -46 15 -6 41
-21 58 -34 l31 -23 -48 -7 c-37 -5 -70 0 -138 19 -92 27 -168 56 -161 63 4 4
167 62 177 62 4 1 17 -15 30 -34z m1609 -141 c0 -23 -289 -117 -1175 -382
-662 -199 -732 -219 -784 -231 -62 -14 -107 6 -127 55 -16 37 -49 193 -42 199
5 5 476 149 686 209 176 51 202 56 291 56 84 0 109 -4 167 -27 65 -26 79 -27
224 -28 149 0 157 1 215 28 33 15 77 44 97 64 53 51 104 62 291 61 86 0 157
-2 157 -4z m-1971 -29 c62 -13 119 -28 127 -33 11 -6 -28 -21 -125 -50 -77
-23 -147 -42 -156 -42 -31 0 -65 46 -65 88 0 35 3 40 33 50 48 15 64 14 186
-13z m-2812 -185 c385 -81 1179 -253 1498 -325 354 -79 756 -169 1082 -241
111 -24 213 -44 225 -44 13 0 66 13 118 30 52 16 291 87 530 158 413 123 683
206 1170 362 198 63 245 77 323 94 25 6 27 4 27 -28 0 -41 -32 -71 -94 -86
-125 -32 -990 -299 -1376 -425 -324 -107 -641 -195 -698 -195 -12 0 -116 23
-230 51 -186 45 -704 163 -1377 314 -239 53 -547 120 -1100 238 l-290 62 -3
38 c-2 20 -1 37 2 37 3 0 90 -18 193 -40z"/>
<path d="M7243 7811 c-43 -31 -258 -311 -305 -396 -38 -71 -44 -122 -19 -162
12 -18 28 -33 36 -33 9 0 44 -14 78 -31 84 -43 193 -79 237 -79 69 0 95 57
116 249 19 188 19 369 -2 421 -27 68 -76 78 -141 31z"/>
<path d="M4283 6251 c-44 -27 -78 -92 -98 -184 -20 -90 -15 -147 20 -223 31
-69 81 -106 149 -112 50 -4 53 -3 88 36 26 28 45 66 63 124 23 72 26 93 20
158 -11 133 -68 209 -163 217 -35 3 -55 -1 -79 -16z"/>
<path d="M5723 6170 c-18 -10 -39 -30 -48 -44 -47 -72 -61 -265 -24 -346 43
-95 97 -140 170 -140 39 0 82 43 121 121 24 46 28 70 32 159 5 114 -9 167 -57
218 -51 55 -135 69 -194 32z"/>
<path d="M6818 5785 c-137 -20 -387 -81 -409 -101 -29 -26 -33 -69 -11 -112
24 -46 59 -60 110 -45 20 7 74 23 119 37 115 35 216 46 451 49 189 2 205 3
218 21 30 42 6 114 -49 143 -42 23 -289 28 -429 8z"/>
<path d="M4846 5734 c-98 -24 -123 -45 -150 -128 -13 -39 13 -93 70 -145 30
-28 68 -58 85 -68 19 -11 29 -25 29 -41 0 -32 52 -82 85 -82 35 0 75 41 68 69
-3 12 -1 21 6 21 19 0 111 91 143 139 37 59 39 126 4 164 -31 33 -68 52 -143
71 -73 19 -118 19 -197 0z"/>
<path d="M6401 5386 c-56 -31 -67 -108 -23 -156 24 -28 38 -32 144 -50 169
-28 282 -54 465 -106 179 -51 183 -51 203 11 15 46 -8 95 -58 123 -37 21 -513
167 -574 176 -92 14 -134 15 -157 2z"/>
<path d="M2429 3673 c-41 -102 -106 -298 -139 -418 -22 -77 -50 -177 -64 -221
-13 -45 -27 -106 -31 -137 -7 -51 -5 -57 23 -88 25 -28 37 -34 71 -34 59 0 77
24 96 122 17 89 105 399 130 460 9 21 25 74 36 118 38 159 19 225 -67 225 -39
0 -46 -3 -55 -27z"/>
<path d="M1813 3543 c-71 -58 -145 -122 -165 -142 -73 -68 -48 -114 143 -271
57 -47 117 -99 134 -116 67 -69 111 -69 145 0 17 35 19 49 11 65 -6 11 -63 65
-126 121 -63 55 -117 105 -121 111 -3 6 44 61 105 123 61 62 111 120 111 129
0 23 -67 87 -90 87 -11 0 -77 -48 -147 -107z"/>
<path d="M2745 3482 c-36 -7 -75 -53 -75 -87 0 -33 38 -75 147 -164 29 -23 66
-60 83 -81 l30 -38 -105 -104 c-111 -110 -121 -131 -89 -176 18 -27 65 -52 95
-52 15 0 51 30 108 88 47 48 114 112 149 143 53 47 62 60 62 89 0 31 -15 49
-167 198 -172 167 -203 192 -238 184z"/>
</g>
</svg>
